<svg width="40" height="40" viewBox="0 0 40 40" fill="none" xmlns="http://www.w3.org/2000/svg">
<circle cx="20" cy="20" r="20" fill="white"/>
<path d="M27.2504 11H12.7496C11.2335 11 10 12.2333 10 13.7496V22.6238C10 24.1367 11.2281 25.368 12.7399 25.3734V29.4004L18.5271 25.3734H27.2504C28.7665 25.3734 30 24.1399 30 22.6238V13.7496C30 12.2333 28.7665 11 27.2504 11ZM28.8281 22.6238C28.8281 23.4937 28.1204 24.2015 27.2504 24.2015H18.1594L13.9117 27.1573V24.2015H12.7496C11.8796 24.2015 11.1719 23.4937 11.1719 22.6238V13.7496C11.1719 12.8795 11.8796 12.1719 12.7496 12.1719H27.2504C28.1204 12.1719 28.8281 12.8795 28.8281 13.7496V22.6238Z" fill="#ABABAB"/>
<path d="M15.3529 15.1407H24.6471V16.3126H15.3529V15.1407Z" fill="#ABABAB"/>
<path d="M15.3529 17.6407H24.6471V18.8126H15.3529V17.6407Z" fill="#ABABAB"/>
<path d="M15.3529 20.1407H24.6471V21.3126H15.3529V20.1407Z" fill="#ABABAB"/>
</svg>

